<?xml version="1.0" ?><!DOCTYPE svg  PUBLIC '-//W3C//DTD SVG 1.1//EN'  'http://www.w3.org/Graphics/SVG/1.1/DTD/svg11.dtd'>
<svg height="512px" style="enable-background:new 0 0 512 512;" version="1.1" viewBox="0 0 512 512" width="512px" xml:space="preserve" xmlns="http://www.w3.org/2000/svg" xmlns:xlink="http://www.w3.org/1999/xlink">
<g id="_x31_49-goodreads">
    <g>
        <path d="M121.789,388.382h2.515c11.413,0,22.914,0,34.324,0.094c1.439,0,2.786-0.361,3.236,1.886    c6.379,31.358,26.956,49.061,56.519,57.416c24.17,6.828,48.61,7.009,73.051,1.618c30.37-6.65,50.318-25.429,61.101-54.273    c7.188-19.319,9.613-39.354,9.884-59.753c0.09-5.21,0.27-42.231-0.18-47.441l-0.808-0.27c-0.72,1.348-1.53,2.605-2.248,3.953    c-19.856,38.729-55.081,60.562-94.707,62.09c-92.549,3.594-152.211-51.218-154.547-158.324    c-0.449-21.295,1.618-42.141,7.458-62.628c18.509-63.886,67.03-106.208,138.285-106.746c55.08-0.36,91.201,34.773,104.41,63.167    c0.45,0.987,1.167,2.066,2.156,1.707V35.529h39.806c0,251.86,0.089,298.495,0.089,298.495    c-0.089,70.534-23.989,129.121-92.55,145.742c-62.448,15.185-142.867,4.313-176.112-51.396    C126.282,416.239,122.867,402.941,121.789,388.382L121.789,388.382z M253.244,58.801c-47.173-0.45-97.491,36.57-103.332,120.223    c-3.684,53.014,13.298,109.802,64.245,133.525c24.801,11.59,66.763,13.477,97.312-7.819    c42.771-29.83,56.339-87.158,49.241-138.375C351.994,102.469,317.759,58.531,253.244,58.801z" style="fill:#7D5024;"/>
    </g>
</g>
<g id="Layer_1"/></svg>